<svg xmlns="http://www.w3.org/2000/svg" viewBox="0 0 1200 800" role="img" aria-label="Notebook Lenovo 14 pulgadas">
  <defs>
    <linearGradient id="bg" x1="0" x2="1" y1="0" y2="1">
      <stop offset="0" stop-color="#e0f2fe"/>
      <stop offset="0.5" stop-color="#f8fafc"/>
      <stop offset="1" stop-color="#ccfbf1"/>
    </linearGradient>
    <linearGradient id="screen" x1="0" x2="1" y1="0" y2="1">
      <stop offset="0" stop-color="#0f172a"/>
      <stop offset="1" stop-color="#115e59"/>
    </linearGradient>
  </defs>
  <rect width="1200" height="800" fill="url(#bg)"/>
  <rect x="235" y="140" width="730" height="435" rx="34" fill="#17202a"/>
  <rect x="270" y="175" width="660" height="360" rx="18" fill="url(#screen)"/>
  <path d="M160 590h880l82 92c12 14 2 36-17 36H96c-19 0-29-22-17-36l81-92Z" fill="#334155"/>
  <path d="M260 620h680l34 40H226l34-40Z" fill="#64748b"/>
  <rect x="520" y="664" width="160" height="22" rx="11" fill="#94a3b8"/>
  <circle cx="392" cy="310" r="58" fill="#14b8a6"/>
  <rect x="486" y="270" width="295" height="24" rx="12" fill="#e2e8f0"/>
  <rect x="486" y="323" width="225" height="22" rx="11" fill="#94a3b8"/>
  <rect x="486" y="376" width="310" height="22" rx="11" fill="#f59e0b"/>
  <text x="92" y="112" fill="#115e59" font-family="Arial, sans-serif" font-size="44" font-weight="900">Notebook 14"</text>
  <text x="92" y="165" fill="#475569" font-family="Arial, sans-serif" font-size="28" font-weight="700">Estudio y trabajo remoto</text>
</svg>
